<?xml version="1.0" standalone="no"?><!DOCTYPE svg PUBLIC "-//W3C//DTD SVG 1.1//EN" "http://www.w3.org/Graphics/SVG/1.1/DTD/svg11.dtd"><svg t="1535093695431" class="icon" style="" viewBox="0 0 1024 1024" version="1.1" xmlns="http://www.w3.org/2000/svg" p-id="5338" xmlns:xlink="http://www.w3.org/1999/xlink" width="200" height="200"><defs><style type="text/css"></style></defs><path d="M512 1024C229.239467 1024 0 794.760533 0 512 0 229.239467 229.239467 0 512 0c282.760533 0 512 229.239467 512 512 0 282.760533-229.239467 512-512 512z m21.7088-684.919467c37.0688 8.260267 72.704-6.929067 79.530667-33.9968 6.894933-26.999467-17.6128-55.6032-54.6816-63.8976-37.102933-8.260267-72.704 6.9632-79.530667 33.9968-6.8608 27.0336 17.6128 55.637333 54.6816 63.8976z m162.269867-169.301333c-85.1968-50.824533-131.9936-36.898133-131.2768-1.4336 0.546133 26.5216 24.746667 33.0752 46.216533 43.349333 72.977067 34.986667 112.3328 88.6784 92.330667 132.266667-18.397867 40.004267-86.698667 54.101333-157.422934 28.603733-72.3968-26.077867-167.355733-88.2688-180.1216-18.1248-10.786133 59.221333 79.121067 61.952 174.455467 158.071467 46.4896 46.830933 57.002667 143.428267 7.099733 196.437333-52.736 56.1152-182.510933 39.185067-242.961066-29.013333-118.784-133.973333-40.209067-256.853333-23.3472-287.061333 13.141333-23.108267 19.8656-38.434133 19.626666-57.002667-0.341333-30.0032-21.333333-49.698133-50.414933-51.438933-34.679467-2.048-60.893867 19.524267-75.3664 51.985066-151.108267 338.670933 174.830933 638.498133 465.5104 527.5648 290.816-111.0016 344.576-521.898667 55.637333-694.203733z" p-id="5339" fill="#1296db"></path></svg>